<svg width="24" height="25" viewBox="0 0 24 25" fill="none" xmlns="http://www.w3.org/2000/svg">
<path d="M13.275 22.1913C12.8917 22.1913 12.6125 22.0652 12.4375 21.813C12.2625 21.5609 12.2417 21.2499 12.375 20.88L16.05 11.0452C16.15 10.7762 16.3333 10.5493 16.6 10.3644C16.8667 10.1794 17.1417 10.087 17.425 10.087C17.7083 10.087 17.9875 10.1794 18.2625 10.3644C18.5375 10.5493 18.725 10.7762 18.825 11.0452L22.575 20.7791C22.725 21.1658 22.7083 21.4978 22.525 21.7752C22.3417 22.0526 22.0333 22.1913 21.6 22.1913C21.4167 22.1913 21.2417 22.1325 21.075 22.0148C20.9083 21.8971 20.7917 21.7458 20.725 21.5609L19.9 19.0139H15.1L14.15 21.5861C14.0833 21.7542 13.9667 21.8971 13.8 22.0148C13.6333 22.1325 13.4583 22.1913 13.275 22.1913ZM15.65 17.2487H19.2L17.45 12.3565H17.4L15.65 17.2487ZM7.225 8.62435C7.475 9.06145 7.75 9.48595 8.05 9.89783C8.35 10.3097 8.675 10.7342 9.025 11.1713C9.775 10.3812 10.4 9.5616 10.9 8.71261C11.4 7.86363 11.825 6.97682 12.175 6.05218H2C1.71667 6.05218 1.47917 5.95551 1.2875 5.76218C1.09583 5.56884 1 5.32928 1 5.04348C1 4.75769 1.09583 4.51812 1.2875 4.32479C1.47917 4.13145 1.71667 4.03479 2 4.03479H8V3.02609C8 2.74029 8.09583 2.50073 8.2875 2.30739C8.47917 2.11406 8.71667 2.0174 9 2.0174C9.28333 2.0174 9.52083 2.11406 9.7125 2.30739C9.90417 2.50073 10 2.74029 10 3.02609V4.03479H16C16.2833 4.03479 16.5208 4.13145 16.7125 4.32479C16.9042 4.51812 17 4.75769 17 5.04348C17 5.32928 16.9042 5.56884 16.7125 5.76218C16.5208 5.95551 16.2833 6.05218 16 6.05218H14.175C13.8083 7.21218 13.3208 8.35116 12.7125 9.46913C12.1042 10.5871 11.3583 11.6504 10.475 12.6591L12.925 15.1557L12.175 17.1983L9 14.1217L4.675 18.4844C4.49167 18.6693 4.26667 18.7617 4 18.7617C3.73333 18.7617 3.50833 18.6609 3.325 18.4591C3.125 18.2742 3.025 18.0473 3.025 17.7783C3.025 17.5093 3.125 17.2739 3.325 17.0722L7.725 12.6339C7.29167 12.1128 6.88333 11.5874 6.5 11.0578C6.11667 10.5283 5.76667 9.98609 5.45 9.43131C5.25 9.06145 5.23333 8.74203 5.4 8.47305C5.56667 8.20406 5.86667 8.06957 6.3 8.06957C6.48333 8.06957 6.6625 8.12421 6.8375 8.23348C7.0125 8.34276 7.14167 8.47305 7.225 8.62435Z" fill="url(#paint0_linear_24_29)"/>
<defs>
<linearGradient id="paint0_linear_24_29" x1="11.8381" y1="2.0174" x2="11.8381" y2="22.1913" gradientUnits="userSpaceOnUse">
<stop stop-color="#B6F829" stop-opacity="0.97"/>
<stop offset="1" stop-color="#67DD0A"/>
</linearGradient>
</defs>
</svg>
