<svg width="310" height="38" viewBox="0 0 310 38" fill="none" xmlns="http://www.w3.org/2000/svg">
<path d="M15.425 5.05C19.445 5.05 22.91 6.325 25.82 8.875L22.085 12.79C20.975 11.95 19.94 11.35 18.98 10.99C18.05 10.6 16.97 10.405 15.74 10.405C13.43 10.405 11.585 11.32 10.205 13.15C8.825 14.95 8.135 17.695 8.135 21.385C8.135 25.375 8.66 28.21 9.71 29.89C10.76 31.54 12.395 32.365 14.615 32.365C16.175 32.365 17.585 32.02 18.845 31.33V24.265H14.795L14.075 19.045H26V34.48C24.38 35.53 22.595 36.34 20.645 36.91C18.695 37.48 16.745 37.765 14.795 37.765C10.055 37.765 6.485 36.385 4.085 33.625C1.685 30.835 0.485 26.755 0.485 21.385C0.485 17.965 1.13 15.025 2.42 12.565C3.74 10.105 5.525 8.245 7.775 6.985C10.055 5.695 12.605 5.05 15.425 5.05ZM49.3339 30.07C49.3339 30.97 49.4539 31.63 49.6939 32.05C49.9639 32.47 50.3839 32.785 50.9539 32.995L49.4689 37.63C47.9989 37.51 46.7989 37.195 45.8689 36.685C44.9389 36.145 44.2189 35.305 43.7089 34.165C42.1489 36.565 39.7489 37.765 36.5089 37.765C34.1389 37.765 32.2489 37.075 30.8389 35.695C29.4289 34.315 28.7239 32.515 28.7239 30.295C28.7239 27.685 29.6839 25.69 31.6039 24.31C33.5239 22.93 36.2989 22.24 39.9289 22.24H42.3589V21.205C42.3589 19.795 42.0589 18.835 41.4589 18.325C40.8589 17.785 39.8089 17.515 38.3089 17.515C37.5289 17.515 36.5839 17.635 35.4739 17.875C34.3639 18.085 33.2239 18.385 32.0539 18.775L30.4339 14.095C31.9339 13.525 33.4639 13.09 35.0239 12.79C36.6139 12.49 38.0839 12.34 39.4339 12.34C42.8539 12.34 45.3589 13.045 46.9489 14.455C48.5389 15.865 49.3339 17.98 49.3339 20.8V30.07ZM38.5789 32.68C40.1989 32.68 41.4589 31.915 42.3589 30.385V26.155H40.6039C38.9839 26.155 37.7689 26.44 36.9589 27.01C36.1789 27.58 35.7889 28.465 35.7889 29.665C35.7889 30.625 36.0289 31.375 36.5089 31.915C37.0189 32.425 37.7089 32.68 38.5789 32.68ZM68.0922 12.34C70.9422 12.34 73.1322 13.465 74.6622 15.715C76.1922 17.935 76.9572 21.055 76.9572 25.075C76.9572 27.535 76.5672 29.725 75.7872 31.645C75.0372 33.565 73.9422 35.065 72.5022 36.145C71.0922 37.225 69.4122 37.765 67.4622 37.765C66.1722 37.765 64.9872 37.495 63.9072 36.955C62.8572 36.415 61.9572 35.665 61.2072 34.705L60.8472 37H54.5472V3.61L61.6572 2.845V15.535C62.3772 14.545 63.2922 13.765 64.4022 13.195C65.5422 12.625 66.7722 12.34 68.0922 12.34ZM65.3922 32.59C68.1822 32.59 69.5772 30.085 69.5772 25.075C69.5772 22.225 69.2472 20.26 68.5872 19.18C67.9272 18.1 66.9672 17.56 65.7072 17.56C64.1172 17.56 62.7672 18.49 61.6572 20.35V30.295C62.1072 31.015 62.6472 31.585 63.2772 32.005C63.9372 32.395 64.6422 32.59 65.3922 32.59ZM93.9078 12.43C94.7778 12.43 95.5728 12.535 96.2928 12.745L95.1678 19.63C94.2678 19.42 93.5478 19.315 93.0078 19.315C91.5978 19.315 90.5178 19.81 89.7678 20.8C89.0478 21.76 88.4778 23.215 88.0578 25.165V37H80.9478V13.105H87.1578L87.7428 17.74C88.2828 16.09 89.0928 14.8 90.1728 13.87C91.2828 12.91 92.5278 12.43 93.9078 12.43ZM105.669 13.105V37H98.5593V13.105H105.669ZM102.069 0.504998C103.299 0.504998 104.304 0.894998 105.084 1.675C105.894 2.425 106.299 3.385 106.299 4.555C106.299 5.725 105.894 6.7 105.084 7.48C104.304 8.23 103.299 8.605 102.069 8.605C100.839 8.605 99.8343 8.23 99.0543 7.48C98.2743 6.7 97.8843 5.725 97.8843 4.555C97.8843 3.385 98.2743 2.425 99.0543 1.675C99.8343 0.894998 100.839 0.504998 102.069 0.504998ZM131.645 24.58C131.645 25.57 131.6 26.425 131.51 27.145H116.705C116.945 29.155 117.515 30.565 118.415 31.375C119.315 32.185 120.56 32.59 122.15 32.59C123.11 32.59 124.04 32.425 124.94 32.095C125.84 31.735 126.815 31.195 127.865 30.475L130.79 34.435C128 36.655 124.895 37.765 121.475 37.765C117.605 37.765 114.635 36.625 112.565 34.345C110.495 32.065 109.46 29.005 109.46 25.165C109.46 22.735 109.895 20.56 110.765 18.64C111.635 16.69 112.91 15.16 114.59 14.05C116.27 12.91 118.28 12.34 120.62 12.34C124.07 12.34 126.77 13.42 128.72 15.58C130.67 17.74 131.645 20.74 131.645 24.58ZM124.67 22.555C124.61 18.895 123.32 17.065 120.8 17.065C119.57 17.065 118.61 17.515 117.92 18.415C117.26 19.315 116.855 20.8 116.705 22.87H124.67V22.555ZM141.534 37.765C139.464 37.765 137.844 37.18 136.674 36.01C135.534 34.81 134.964 33.115 134.964 30.925V3.61L142.074 2.845V30.655C142.074 31.645 142.479 32.14 143.289 32.14C143.709 32.14 144.099 32.065 144.459 31.915L145.854 36.955C144.564 37.495 143.124 37.765 141.534 37.765ZM171.062 5.05C175.502 5.05 178.952 6.475 181.412 9.325C183.902 12.175 185.147 16.195 185.147 21.385C185.147 24.775 184.577 27.7 183.437 30.16C182.327 32.62 180.707 34.51 178.577 35.83C176.477 37.12 173.972 37.765 171.062 37.765C168.152 37.765 165.647 37.12 163.547 35.83C161.447 34.54 159.827 32.68 158.687 30.25C157.577 27.79 157.022 24.835 157.022 21.385C157.022 18.025 157.577 15.115 158.687 12.655C159.827 10.195 161.447 8.32 163.547 7.03C165.647 5.71 168.152 5.05 171.062 5.05ZM171.062 10.45C168.932 10.45 167.342 11.32 166.292 13.06C165.272 14.77 164.762 17.545 164.762 21.385C164.762 25.225 165.287 28.015 166.337 29.755C167.387 31.495 168.962 32.365 171.062 32.365C173.222 32.365 174.812 31.51 175.832 29.8C176.882 28.06 177.407 25.255 177.407 21.385C177.407 17.515 176.882 14.725 175.832 13.015C174.782 11.305 173.192 10.45 171.062 10.45ZM195.335 37.765C193.265 37.765 191.645 37.18 190.475 36.01C189.335 34.81 188.765 33.115 188.765 30.925V3.61L195.875 2.845V30.655C195.875 31.645 196.28 32.14 197.09 32.14C197.51 32.14 197.9 32.065 198.26 31.915L199.655 36.955C198.365 37.495 196.925 37.765 195.335 37.765ZM209.009 13.105V37H201.899V13.105H209.009ZM205.409 0.504998C206.639 0.504998 207.644 0.894998 208.424 1.675C209.234 2.425 209.639 3.385 209.639 4.555C209.639 5.725 209.234 6.7 208.424 7.48C207.644 8.23 206.639 8.605 205.409 8.605C204.179 8.605 203.174 8.23 202.394 7.48C201.614 6.7 201.224 5.725 201.224 4.555C201.224 3.385 201.614 2.425 202.394 1.675C203.174 0.894998 204.179 0.504998 205.409 0.504998ZM234.715 13.105L227.2 37H218.785L211.09 13.105H218.83L223.06 31.6L227.47 13.105H234.715ZM257.254 24.58C257.254 25.57 257.209 26.425 257.119 27.145H242.314C242.554 29.155 243.124 30.565 244.024 31.375C244.924 32.185 246.169 32.59 247.759 32.59C248.719 32.59 249.649 32.425 250.549 32.095C251.449 31.735 252.424 31.195 253.474 30.475L256.399 34.435C253.609 36.655 250.504 37.765 247.084 37.765C243.214 37.765 240.244 36.625 238.174 34.345C236.104 32.065 235.069 29.005 235.069 25.165C235.069 22.735 235.504 20.56 236.374 18.64C237.244 16.69 238.519 15.16 240.199 14.05C241.879 12.91 243.889 12.34 246.229 12.34C249.679 12.34 252.379 13.42 254.329 15.58C256.279 17.74 257.254 20.74 257.254 24.58ZM250.279 22.555C250.219 18.895 248.929 17.065 246.409 17.065C245.179 17.065 244.219 17.515 243.529 18.415C242.869 19.315 242.464 20.8 242.314 22.87H250.279V22.555ZM267.908 13.105V37H260.798V13.105H267.908ZM264.308 0.504998C265.538 0.504998 266.543 0.894998 267.323 1.675C268.133 2.425 268.538 3.385 268.538 4.555C268.538 5.725 268.133 6.7 267.323 7.48C266.543 8.23 265.538 8.605 264.308 8.605C263.078 8.605 262.073 8.23 261.293 7.48C260.513 6.7 260.123 5.725 260.123 4.555C260.123 3.385 260.513 2.425 261.293 1.675C262.073 0.894998 263.078 0.504998 264.308 0.504998ZM286.009 12.43C286.879 12.43 287.674 12.535 288.394 12.745L287.269 19.63C286.369 19.42 285.649 19.315 285.109 19.315C283.699 19.315 282.619 19.81 281.869 20.8C281.149 21.76 280.579 23.215 280.159 25.165V37H273.049V13.105H279.259L279.844 17.74C280.384 16.09 281.194 14.8 282.274 13.87C283.384 12.91 284.629 12.43 286.009 12.43ZM308.068 30.07C308.068 30.97 308.188 31.63 308.428 32.05C308.698 32.47 309.118 32.785 309.688 32.995L308.203 37.63C306.733 37.51 305.533 37.195 304.603 36.685C303.673 36.145 302.953 35.305 302.443 34.165C300.883 36.565 298.483 37.765 295.243 37.765C292.873 37.765 290.983 37.075 289.573 35.695C288.163 34.315 287.458 32.515 287.458 30.295C287.458 27.685 288.418 25.69 290.338 24.31C292.258 22.93 295.033 22.24 298.663 22.24H301.093V21.205C301.093 19.795 300.793 18.835 300.193 18.325C299.593 17.785 298.543 17.515 297.043 17.515C296.263 17.515 295.318 17.635 294.208 17.875C293.098 18.085 291.958 18.385 290.788 18.775L289.168 14.095C290.668 13.525 292.198 13.09 293.758 12.79C295.348 12.49 296.818 12.34 298.168 12.34C301.588 12.34 304.093 13.045 305.683 14.455C307.273 15.865 308.068 17.98 308.068 20.8V30.07ZM297.313 32.68C298.933 32.68 300.193 31.915 301.093 30.385V26.155H299.338C297.718 26.155 296.503 26.44 295.693 27.01C294.913 27.58 294.523 28.465 294.523 29.665C294.523 30.625 294.763 31.375 295.243 31.915C295.753 32.425 296.443 32.68 297.313 32.68Z" fill="black"/>
</svg>
